<?xml version="1.0" encoding="utf-8"?>
<!-- Generator: Adobe Illustrator 22.1.0, SVG Export Plug-In . SVG Version: 6.00 Build 0)  -->
<svg version="1.1" id="Layer_1" xmlns="http://www.w3.org/2000/svg" xmlns:xlink="http://www.w3.org/1999/xlink" x="0px" y="0px"
	 viewBox="0 0 345 240" style="enable-background:new 0 0 345 240;" xml:space="preserve">
<style type="text/css">
	.st0{fill:#FFCC2A;}
</style>
<g transform="matrix( 3.370880126953125, 0, 0, 3.370880126953125, 483.55,602.55) ">
	<g transform="matrix( 1, 0, 0, 1, -101.75,-49.75) ">
		<g transform="matrix( 1, 0, 0, 1, -68.95,-67.95) ">
			<g>
				<g id="Duplicate_Items_Folder_Symbol_1_0_Layer0_0_FILL">
					<path class="st0" d="M46.1-44.3c-5.2,0-9.6,1.8-13.3,5.5c-3.7,3.7-5.5,8.1-5.5,13.3c0,5.2,1.8,9.6,5.5,13.3
						c3.7,3.7,8.1,5.5,13.3,5.5c4.4,0,8.4-1.4,11.8-4.2c3.4-2.7,5.6-6.2,6.5-10.4h-9.6c-0.8,1.6-2,2.9-3.5,3.9
						c-1.6,1-3.3,1.5-5.2,1.5c-2.7,0-5-0.9-6.8-2.8c-1.9-1.9-2.8-4.2-2.8-6.8s0.9-5,2.8-6.8c1.9-1.9,4.2-2.8,6.8-2.8
						c1.8,0,3.5,0.5,5,1.4c1.5,0.9,2.6,2.1,3.5,3.6h9.8c-1.1-4.1-3.3-7.5-6.6-10.1C54.3-42.9,50.4-44.3,46.1-44.3z"/>
				</g>
			</g>
		</g>
	</g>
	<g transform="matrix( 1, 0, 0, 1, 3,-49.75) ">
		<g transform="matrix( 1, 0, 0, 1, -173.7,-67.95) ">
			<g>
				<g id="Duplicate_Items_Folder_Symbol_2_0_Layer0_0_FILL">
					<path class="st0" d="M66.4-44.3v8.9h7.7v28.2h8.9v-28.2h7.7v-8.9H66.4z"/>
				</g>
			</g>
		</g>
	</g>
	<g transform="matrix( 1, 0, 0, 1, 72.45,-49.75) ">
		<g transform="matrix( 1, 0, 0, 1, -243.15,-67.95) ">
			<g>
				<g id="Duplicate_Items_Folder_Symbol_3_0_Layer0_0_FILL">
					<path class="st0" d="M123-10.8c3.4-2.7,5.6-6.2,6.5-10.4H120c-0.8,1.6-2,2.9-3.5,3.9c-1.6,1-3.3,1.5-5.2,1.5
						c-2.7,0-4.9-0.9-6.8-2.8c-1.9-1.9-2.8-4.2-2.8-6.8s0.9-5,2.8-6.8c1.9-1.9,4.2-2.8,6.8-2.8c1.8,0,3.5,0.5,5,1.4
						c1.5,0.9,2.6,2.1,3.5,3.6h9.8c-1-4.1-3.2-7.5-6.6-10.1c-3.4-2.7-7.3-4-11.6-4c-5.2,0-9.6,1.8-13.3,5.5
						c-3.7,3.7-5.5,8.1-5.5,13.3c0,5.2,1.8,9.6,5.5,13.3c3.7,3.7,8.1,5.5,13.3,5.5C115.7-6.6,119.6-8,123-10.8z"/>
				</g>
			</g>
		</g>
	</g>
</g>
</svg>
