<?xml version="1.0" encoding="utf-8"?>
<svg version="1.1" id="Layer_1" xmlns="http://www.w3.org/2000/svg" xmlns:xlink="http://www.w3.org/1999/xlink" viewBox="0 0 96 39"><path d="M46.375 0h.35c.401.1.702.45.702.85v3.8c.05.55 0 1.05-.05 1.6-.05.4-.5.55-.851.6-.752.1-1.503.2-2.204.3v7.75c0 .7.05 1.4 0 2.1-.1.4-.5.7-.901.7-1.202.15-2.354.3-3.556.45-.75.15-1.502.2-2.253.15-.2-.05-.4-.2-.45-.4-.1-.35-.15-.75-.15-1.1V8.05c-.602.05-1.253.15-1.904.25-.35 0-.75.05-.951-.25-.2-.25-.3-.6-.25-.95V2.6c0-.25 0-.6.2-.8.3-.35.801-.3 1.202-.4C38.964.9 42.669.5 46.375 0zM25.143 2.65c-1.953.1-3.805.85-5.308 2.1-1.252 1.2-1.953 2.9-1.902 4.6-.05 1.05.2 2.1.75 3.05.401.6 1.002 1.1 1.653 1.35a211.104 211.104 0 0 0-3.405 5.65.9.9 0 0 0 0 1.1c.2.25.6.4.901.3 1.953-.25 3.956-.5 5.91-.7.35 0 .65-.15.85-.45.401-.65.652-1.35 1.052-2.05 0 .45 0 .9.05 1.35.05.4.35.7.751.75.25 0 .451 0 .701-.05 1.603-.2 3.155-.4 4.758-.6.3 0 .6-.1.8-.25.151-.2.251-.5.201-.75V4.35c0-.6 0-1.25-.05-1.85-.05-.35-.4-.65-.751-.6-.551-.05-1.052 0-1.602.1l-5.359.65zM.907 5.55c-.3 0-.55.15-.701.35-.15.2-.2.5-.15.75-.05 4.95-.05 9.9-.05 14.85 0 .3-.05.7.15.95.1.15.3.3.5.3.652 0 1.252-.05 1.903-.15 1.252-.15 2.554-.3 3.806-.45.25 0 .5-.1.651-.2.35-.2.35-.7.35-1.1V11.4l1.603-.2v9.55c-.05.45.25.85.701.95.4 0 .851-.05 1.252-.1 1.452-.15 2.854-.35 4.306-.5.2 0 .401-.05.601-.1.3-.1.501-.4.501-.7V4.7c0-.45-.35-.8-.801-.85h-.2c-.802.05-1.553.2-2.304.25L.907 5.55zM88.639 13c-.35 0-.701.15-.901.45-.15.55-.15 1.1 0 1.65.3 3.15.6 6.3.85 9.45 0 .3.05.6.201.85.3.3.701.4 1.102.3 1.302-.15 2.554-.3 3.856-.5.35 0 .7-.1 1.001-.25.2-.25.35-.6.3-.95.2-2.3.451-4.6.602-6.95.1-1.25.2-2.5.35-3.7v-.4c-.15-.25-.3-.6-.6-.6-.602 0-1.253 0-1.854.15-1.552.1-3.205.3-4.907.5zm-13.47 1.7c-.4 0-.751.3-.801.7l-5.459 16.05c-.1.3-.05.7.2.95s.601.3.952.25c1.953-.25 3.956-.45 5.909-.75.3-.1.55-.3.6-.6.1-.45.201-.95.301-1.4.952-.15 1.853-.25 2.804-.35.1.5.25.95.401 1.4.25.3.651.45 1.052.35 1.552-.2 3.054-.35 4.607-.55.5-.05.951-.1 1.402-.2.4-.15.65-.6.55-1.05-.1-.4-.25-.8-.4-1.2l-4.958-13.6c-.05-.2-.2-.4-.35-.55-.3-.2-.651-.2-.951-.1-1.954.15-3.906.4-5.86.65zm-13.07 1.6c-.45 0-1.002.25-1.002.75v10c-.55.1-1.101.15-1.652.2V17.9c.05-.4-.1-.75-.4-1-.301-.15-.602-.2-.902-.1-1.502.2-3.055.4-4.557.55-.45 0-.851.1-1.252.25-.2.2-.3.55-.25.85V33.6c-.05.25.05.5.15.75.15.2.35.3.551.35.45 0 .951-.05 1.402-.15l4.557-.55c.751-.05 1.552-.2 2.303-.25 0 .75-.05 1.55 0 2.3.1.45.551.75 1.002.65.6-.05 1.302-.15 1.903-.25.65-.1 1.452-.15 2.153-.3.35-.1.5-.5.6-.8.902-2.6 1.804-5.25 2.705-7.85.15-.35.15-.7-.05-1-.2-.35-.701-.4-1.052-.4V17c0-.4 0-.9-.35-1.15-.3-.15-.701-.2-1.052-.1l-4.807.55zm-17.576 2.15c-.351.05-.501.4-.601.6l-2.855 5.1c-.05-1.4 0-2.85 0-4.3 0-.4-.25-.75-.6-.85-.501 0-1.002 0-1.553.1l-4.156.5c-.3 0-.551.15-.701.35-.1.2-.15.45-.15.65V36.15c.05.3.3.55.6.6a12.2 12.2 0 0 0 1.903-.15l3.906-.45c.35 0 .651-.2.801-.5.952-1.65 1.903-3.4 2.855-5.15v3.95c-.05.3.05.6.2.85.2.25.5.4.801.3.852-.05 1.703-.2 2.554-.3 1.002-.15 2.003-.2 3.005-.4.35-.1.6-.4.6-.75V18.8c0-.3 0-.7-.35-.9-.3-.15-.651-.2-1.001-.1-1.753.25-3.506.4-5.258.65zm-17.978 2.2c-.25 0-.45.1-.65.25-.2.2-.3.5-.25.75v4.25c-.552.1-1.052.15-1.603.2v-3.5c.05-.4 0-.8-.2-1.2-.25-.3-.651-.4-1.052-.3-1.653.2-3.355.4-5.008.6-.3 0-.65.1-.901.3-.3.25-.25.7-.25 1.05v14.4c-.05.4 0 .85.2 1.25.15.15.3.25.5.3.451 0 .902-.05 1.303-.1 1.452-.15 2.854-.35 4.306-.5.3 0 .601-.1.851-.35.15-.3.25-.65.2-1V32.8l1.603-.2v4.2c-.05.3.05.55.2.8.25.3.601.4.952.3l5.108-.6c.3 0 .6-.1.85-.25.201-.2.301-.5.251-.8V21.1c.05-.35-.05-.7-.3-.9-.3-.25-.701-.15-1.052-.15-1.703.2-3.405.4-5.058.6zM89.09 26.7c-.401.05-.702.4-.702.8-.05 1.2 0 2.4-.05 3.55-.05.55 0 1.15.1 1.7.15.4.602.65 1.052.55l5.108-.6c.25 0 .5-.1.65-.25.301-.25.251-.7.251-1.05v-3.55c0-.45 0-.85-.1-1.3a.84.84 0 0 0-.901-.5c-1.803.2-3.606.4-5.408.65z"></path></svg>